<svg xmlns="http://www.w3.org/2000/svg" width="1200" height="320" viewBox="0 0 1200 320" fill="none" role="img" aria-labelledby="title desc">
  <title id="title">Aleph: Give your agent a piece of the world</title>
  <desc id="desc">A small paper world with hand-drawn terrain, streets, and a red ink river beside the Aleph wordmark and motto on warm charcoal.</desc>
  <rect width="1200" height="320" rx="28" fill="#181715"/>
  <g transform="translate(285 68) scale(1.9)">
    <defs>
      <clipPath id="aleph-world"><circle cx="48" cy="48" r="36"/></clipPath>
      <filter id="aleph-ink" x="-10%" y="-10%" width="120%" height="120%" color-interpolation-filters="sRGB">
        <feTurbulence type="fractalNoise" baseFrequency=".42" numOctaves="3" seed="12" result="grain"/>
        <feDisplacementMap in="SourceGraphic" in2="grain" scale=".85" xChannelSelector="R" yChannelSelector="G"/>
      </filter>
    </defs>
    <g clip-path="url(#aleph-world)">
      <circle cx="48" cy="48" r="36" fill="#F8F1E5"/>
      <g filter="url(#aleph-ink)" stroke="#34302B" stroke-linecap="round" stroke-linejoin="round">
        <g stroke-width="1.5">
          <path d="M7 30.2C12.4 26.3 17.8 24.1 22.1 24.7 26.6 24.9 28.6 27.5 29.7 31.1 31.2 35.3 29.2 39.8 27.5 44.1 25.6 48 25.1 51.2 26.3 54.5 28.2 59.1 32.8 62.1 34.4 67 36 71 35 74.8 33.9 79.1L30.1 89"/>
          <path stroke-width="1.35" d="M5 43.3C9.2 39.2 13.5 36.8 16.2 37.7 19.6 38.2 20.1 40.7 19.7 43.2 19.8 47.3 17.5 51.1 17.7 56 17.4 60 18.9 63.3 21.4 66.5 24.3 70.3 27 73.1 26.1 77.7 25.9 80.2 24.2 82.2 22.8 84.2"/>
          <path stroke-width="1.2" d="M5 60.3C8.2 57.4 11.1 58.7 12.1 62.2 13.9 65.6 13.4 70.3 11.8 74"/>
          <path stroke-width="1.65" d="M53.8 8C56.1 15.1 57.3 23.2 59.8 30.1 62.2 37.4 64.4 43.9 68.9 49.8 74.2 57.1 80.4 62.1 89.2 67.3"/>
          <path stroke-width="1.4" d="M71.1 12C71.5 18.3 73 23.9 74.7 29.4 76.9 35.1 81.4 39.7 85.2 43.2L91.1 47"/>
          <path d="M43 26.2C49.4 27.2 55 26.5 61.2 25.8 67.3 25.4 72.3 24.1 77.2 25.3 80.3 25.5 82.3 27.3 85 28.1"/>
          <path stroke-width="1.4" d="M47 44.2C52.4 44.8 58.5 43.7 63.2 42.4 69.1 40.9 73.4 38.3 78.7 38.1 82.2 37.6 85.7 39.6 89 40.9"/>
          <path stroke-width="1.3" d="M55 60.2C60.1 60.8 64.7 59.1 68.6 57.1 73.4 55 77.1 53 82 53.1L88 53.3"/>
          <path stroke-width="1.45" d="M41.8 86C40.9 81.3 42.4 77.2 45.6 76 48.2 74.4 51.3 75.4 54.2 78.2 57.5 81 60.5 82 64.2 81.5 66.2 81.5 68.3 80 70 78.8"/>
        </g>
        <path fill="#F34838" stroke="none" d="M35.8 7.5C32.6 12.2 33.2 16.4 34.6 20.2 36 24.1 39.2 27.4 40.8 31.7 42.5 36 39.6 41.2 37.7 46.6 35.5 52.8 39.1 58.6 45.3 61.9 51.1 65.5 55.6 66.8 59.2 71.3 62.4 75.6 59.1 81.9 54.4 85.2L59.8 89C66.1 82 68.6 76.7 64.4 69.7 61.1 64.1 54.7 61.4 50.8 59.3 46.1 56.6 42 54.4 43.1 49.9 44.6 44.7 48 38.9 47 33.9 46.7 28.6 42.6 24.8 40.5 20.3 38.7 16.7 39.4 13.4 42 10.2Z"/>
      </g>
    </g>
  </g>
  <text x="505" y="164" fill="#FCF8F1" font-family="Georgia, 'Times New Roman', serif" font-size="92" letter-spacing="-4">Aleph</text>
  <text x="509" y="212" fill="#B5B0A8" font-family="Helvetica Neue, Helvetica, Arial, sans-serif" font-size="23">Give your agent a piece of the world</text>
</svg>
